<svg width="50" height="50" viewBox="0 0 50 50" xmlns="http://www.w3.org/2000/svg">
  <!-- Business Tools/Optimization icon -->
  <defs>
    <linearGradient id="toolsGradient" x1="0%" y1="0%" x2="100%" y2="100%">
      <stop offset="0%" style="stop-color:#1E40AF;stop-opacity:1" />
      <stop offset="100%" style="stop-color:#3B82F6;stop-opacity:1" />
    </linearGradient>
  </defs>
  
  <!-- Toolbox -->
  <rect x="8" y="20" width="34" height="20" rx="2" fill="url(#toolsGradient)" opacity="0.1"/>
  <rect x="8" y="20" width="34" height="20" rx="2" fill="none" stroke="url(#toolsGradient)" stroke-width="2"/>
  
  <!-- Toolbox handle -->
  <path d="M20 20 L20 15 Q20 13 22 13 L28 13 Q30 13 30 15 L30 20" 
        fill="none" 
        stroke="url(#toolsGradient)" 
        stroke-width="2"/>
  
  <!-- Tools inside -->
  <!-- Wrench -->
  <path d="M15 25 L18 28 M18 25 L15 28" stroke="#F59E0B" stroke-width="2" stroke-linecap="round"/>
  
  <!-- Screwdriver -->
  <line x1="22" y1="25" x2="22" y2="32" stroke="#10B981" stroke-width="2"/>
  <circle cx="22" cy="24" r="1" fill="#10B981"/>
  
  <!-- Hammer -->
  <line x1="28" y1="30" x2="32" y2="26" stroke="#EF4444" stroke-width="2"/>
  <rect x="31" y="24" width="3" height="4" fill="#EF4444"/>
  
  <!-- Analytics/Chart -->
  <g transform="translate(10, 5)">
    <rect x="0" y="8" width="2" height="4" fill="url(#toolsGradient)" opacity="0.6"/>
    <rect x="3" y="6" width="2" height="6" fill="url(#toolsGradient)" opacity="0.6"/>
    <rect x="6" y="4" width="2" height="8" fill="url(#toolsGradient)" opacity="0.6"/>
    <rect x="9" y="7" width="2" height="5" fill="url(#toolsGradient)" opacity="0.6"/>
  </g>
  
  <!-- Productivity arrow -->
  <path d="M35 10 L40 10 L38 8 M40 10 L38 12" 
        stroke="#059669" 
        stroke-width="2" 
        fill="none" 
        stroke-linecap="round"/>
  
  <!-- Data points -->
  <circle cx="12" cy="45" r="2" fill="#C4A047" opacity="0.4"/>
  <circle cx="25" cy="45" r="2" fill="#C4A047" opacity="0.4"/>
  <circle cx="38" cy="45" r="2" fill="#C4A047" opacity="0.4"/>
  <line x1="12" y1="45" x2="25" y2="45" stroke="#C4A047" stroke-width="1" opacity="0.4"/>
  <line x1="25" y1="45" x2="38" y2="45" stroke="#C4A047" stroke-width="1" opacity="0.4"/>
</svg>
