<svg width="50" height="50" viewBox="0 0 50 50" xmlns="http://www.w3.org/2000/svg">
  <!-- Website/AI Integration icon -->
  <defs>
    <linearGradient id="websiteGradient" x1="0%" y1="0%" x2="100%" y2="100%">
      <stop offset="0%" style="stop-color:#1E40AF;stop-opacity:1" />
      <stop offset="100%" style="stop-color:#3B82F6;stop-opacity:1" />
    </linearGradient>
  </defs>
  
  <!-- Browser window -->
  <rect x="5" y="8" width="40" height="30" rx="3" fill="url(#websiteGradient)" opacity="0.1"/>
  <rect x="5" y="8" width="40" height="30" rx="3" fill="none" stroke="url(#websiteGradient)" stroke-width="2"/>
  
  <!-- Browser header -->
  <rect x="5" y="8" width="40" height="6" rx="3" fill="url(#websiteGradient)" opacity="0.3"/>
  
  <!-- Browser buttons -->
  <circle cx="9" cy="11" r="1" fill="#EF4444"/>
  <circle cx="12" cy="11" r="1" fill="#F59E0B"/>
  <circle cx="15" cy="11" r="1" fill="#10B981"/>
  
  <!-- Website content -->
  <rect x="8" y="18" width="20" height="2" rx="1" fill="url(#websiteGradient)" opacity="0.4"/>
  <rect x="8" y="22" width="15" height="2" rx="1" fill="url(#websiteGradient)" opacity="0.4"/>
  <rect x="8" y="26" width="25" height="2" rx="1" fill="url(#websiteGradient)" opacity="0.4"/>
  <rect x="8" y="30" width="18" height="2" rx="1" fill="url(#websiteGradient)" opacity="0.4"/>
  
  <!-- AI chatbot -->
  <circle cx="38" cy="32" r="8" fill="#10B981" opacity="0.2"/>
  <circle cx="38" cy="32" r="8" fill="none" stroke="#10B981" stroke-width="2"/>
  
  <!-- Chatbot face -->
  <circle cx="36" cy="30" r="1" fill="#10B981"/>
  <circle cx="40" cy="30" r="1" fill="#10B981"/>
  <path d="M35 34 Q38 36 41 34" stroke="#10B981" stroke-width="1.5" fill="none"/>
  
  <!-- Chat bubbles -->
  <ellipse cx="28" cy="25" rx="4" ry="2" fill="#E5E7EB"/>
  <ellipse cx="32" cy="22" rx="3" ry="1.5" fill="#3B82F6" opacity="0.3"/>
  
  <!-- Connection lines -->
  <path d="M30 32 Q34 30 34 28" stroke="#10B981" stroke-width="1" fill="none" opacity="0.5"/>
</svg>
