<svg width="50" height="50" viewBox="0 0 50 50" xmlns="http://www.w3.org/2000/svg">
  <!-- AI Avatar/Media icon -->
  <defs>
    <linearGradient id="avatarGradient" x1="0%" y1="0%" x2="100%" y2="100%">
      <stop offset="0%" style="stop-color:#1E40AF;stop-opacity:1" />
      <stop offset="100%" style="stop-color:#3B82F6;stop-opacity:1" />
    </linearGradient>
  </defs>
  
  <!-- Avatar head -->
  <circle cx="25" cy="20" r="12" fill="url(#avatarGradient)" opacity="0.2"/>
  <circle cx="25" cy="20" r="12" fill="none" stroke="url(#avatarGradient)" stroke-width="2"/>
  
  <!-- Face -->
  <circle cx="22" cy="17" r="1.5" fill="url(#avatarGradient)"/>
  <circle cx="28" cy="17" r="1.5" fill="url(#avatarGradient)"/>
  <path d="M22 23 Q25 25 28 23" stroke="url(#avatarGradient)" stroke-width="2" fill="none"/>
  
  <!-- Body -->
  <rect x="20" y="30" width="10" height="12" rx="5" fill="url(#avatarGradient)" opacity="0.2"/>
  <rect x="20" y="30" width="10" height="12" rx="5" fill="none" stroke="url(#avatarGradient)" stroke-width="2"/>
  
  <!-- Media elements -->
  <!-- Play button -->
  <circle cx="8" cy="35" r="6" fill="#F59E0B" opacity="0.3"/>
  <path d="M6 32 L6 38 L11 35 Z" fill="#F59E0B"/>
  
  <!-- Video frame -->
  <rect x="35" y="30" width="12" height="8" rx="1" fill="none" stroke="#10B981" stroke-width="2"/>
  <circle cx="38" cy="33" r="1" fill="#10B981"/>
  <line x1="40" y1="35" x2="44" y2="35" stroke="#10B981" stroke-width="1"/>
  
  <!-- AI sparkles -->
  <g fill="#C4A047" opacity="0.6">
    <circle cx="12" cy="12" r="1"/>
    <circle cx="38" cy="15" r="1"/>
    <circle cx="42" cy="42" r="1"/>
  </g>
</svg>
